<svg xmlns="http://www.w3.org/2000/svg" viewBox="0 0 32 32" width="48" height="48"><title>google map</title><g class="nc-icon-wrapper" fill="#efefef"><path d="M25.216 8.96c-.096-.352-.32-.768-.448-1.12-1.792-4.288-5.728-5.856-8.896-5.856-4.224 0-8.864 2.848-9.504 8.704v1.184c0 .064.032.512.032.736.352 2.784 2.56 5.728 4.192 8.544a819.22 819.22 0 0 0 5.44 8.864c1.12-1.92 2.24-3.872 3.328-5.728.288-.544.64-1.12.928-1.632.224-.352.576-.704.768-1.024 1.76-3.232 4.608-6.496 4.608-9.696v-1.312c0-.352-.448-1.568-.448-1.664zm-9.248 6.016c-1.248 0-2.624-.64-3.296-2.336-.096-.288-.064-.832-.064-.896v-.768c0-2.176 1.856-3.168 3.456-3.168 1.984 0 3.552 1.568 3.552 3.584s-1.664 3.584-3.648 3.584z" fill="#efefef"/></g></svg>