<svg xmlns="http://www.w3.org/2000/svg" viewBox="0 0 32 32" width="64" height="64"><title>thermometer</title><g class="nc-icon-wrapper" fill="#efefef"><path d="M19.456 18.624c-.256-.16-.352-.352-.352-.672.032-2.144.032-4.288.032-6.464V5.28c0-.288 0-.576-.096-.864-.384-1.504-1.824-2.56-3.296-2.4-1.728.192-2.88 1.472-2.88 3.136v12.832c0 .288-.096.48-.32.64-1.568 1.056-2.464 2.528-2.72 4.416-.544 4.096 3.264 7.712 7.328 6.848 2.656-.576 4.32-2.24 4.928-4.896.544-2.4-.512-4.928-2.624-6.368zm1.568 5.984c-.352 2.112-1.92 3.712-4.064 4.16-3.168.672-6.208-1.952-6.048-5.184.096-1.888.992-3.296 2.592-4.256.32-.192.448-.384.448-.8l-.032-6.88c0-.416.128-.544.544-.512.288.032.608 0 .928 0 .192 0 .48.032.48-.256 0-.32-.288-.288-.512-.288-.352 0-.704-.032-1.056 0-.352.032-.352-.16-.352-.416-.032-.288.032-.416.352-.416.384.032.768.032 1.12.032.224 0 .448-.032.448-.256 0-.288-.224-.32-.448-.32-.384 0-.768-.032-1.12 0-.352.032-.352-.16-.352-.416-.032-.288.064-.416.352-.384.352.032.736 0 1.088 0 .192 0 .48.032.48-.256 0-.32-.288-.32-.512-.32-.352 0-.672 0-1.024.032-.32 0-.416-.128-.384-.416 0-.288.064-.416.384-.416.352.032.704 0 1.056.032.224 0 .48 0 .48-.288s-.224-.288-.48-.288c-.352 0-.704-.032-1.056 0-.32.032-.416-.128-.384-.416 0-.288.064-.416.384-.384h1.056c.224 0 .448 0 .48-.288 0-.288-.224-.288-.448-.288-.384 0-.736-.032-1.088 0-.384.032-.416-.128-.32-.448.288-1.024 1.184-1.632 2.304-1.504.928.096 1.696.96 1.728 1.984v13.312c0 .416.128.672.512.896 1.856 1.12 2.816 3.2 2.464 5.248zm-3.584-3.744c-.256-.128-.32-.288-.32-.544v-3.136-3.2c0-.736-.512-1.248-1.184-1.216-.608.032-1.056.544-1.056 1.28 0 2.08 0 4.128.032 6.208 0 .32-.096.48-.416.64-1.408.64-2.208 2.208-1.984 3.68.288 1.696 1.664 2.944 3.328 3.008 1.664.096 3.168-1.024 3.584-2.624.416-1.664-.384-3.36-1.984-4.096z" fill="#efefef"/></g></svg>